# xmcd
# 
# Track frame offsets:
#     150
#     13618
#     26875
#     39507
#     53487
#     66227
#     80161
#     93502
#     107192
#     123954
#     137217
# 
# Disc length: 2061
# 
# Revision: 0
# Processed by: cddbd v1.5.2PL0 Copyright (c) Steve Scherf et al.
# Submitted via: fre:ac v1.0.17
# 
DISCID=95080b0b
DTITLE=Billy Wright - Thanks for the Memories
DYEAR=2012
DGENRE=Country
TTITLE0=Forty Aces
TTITLE1=Thanks For The Memories
TTITLE2=Pardon Me
TTITLE3=If Not For Love
TTITLE4=Well Now Lonesome
TTITLE5=Rosie
TTITLE6=See Who's Closer
TTITLE7=See How Many Tears I Cried
TTITLE8=If Heartaches Were Pennies
TTITLE9=Sing Another Song
TTITLE10=Pushing America Out The Door
EXTD=
EXTT0=
EXTT1=
EXTT2=
EXTT3=
EXTT4=
EXTT5=
EXTT6=
EXTT7=
EXTT8=
EXTT9=
EXTT10=
PLAYORDER=
